# xmcd
#
# Track frame offsets:
#	150
#	14655
#	25632
#	39672
#	52175
#	64085
#	74345
#	84735
#	100995
#	112590
#	123215
#	133802
#
# Disc length: 1948 seconds
#
# Revision: 0
# Processed by: cddbd v1.5.2PL0 Copyright (c) Steve Scherf et al.
# Submitted via: EasyCDDAExtractor 16.0.8.1
#
DISCID=a3079a0c
DTITLE=Chitãozinho and Xororó - A Força Jovem Da Música Sertaneja - Vol.II
DYEAR=1977
DGENRE=Sertaneja
TTITLE0=Querida
TTITLE1=Para Sempre Comigo
TTITLE2=O Homem Do Campo
TTITLE3=Amor Da Minha Vida
TTITLE4=Caminhando Pela Vida
TTITLE5=O Comicio Terminou
TTITLE6=A Flor Da Noite
TTITLE7=O Pobre E A Rosa
TTITLE8=Aquelas Águas Serenas
TTITLE9=Adeus Amor
TTITLE10=O Tempo Trouxe A Saudade
TTITLE11=Sozinho Na Estrada
EXTD=
EXTT0=
EXTT1=
EXTT2=
EXTT3=
EXTT4=
EXTT5=
EXTT6=
EXTT7=
EXTT8=
EXTT9=
EXTT10=
EXTT11=
PLAYORDER=
